<svg xmlns="http://www.w3.org/2000/svg" width="13" height="17" viewBox="0 0 13 17" fill="none" id="svg1911231601_2382">
<path fill-rule="evenodd" clip-rule="evenodd" d="M7.85042 3.86815C7.44466 4.08478 7.05953 4.1931 6.69504 4.1931C6.61939 4.1931 6.54717 4.18622 6.4784 4.17247C6.47152 4.15184 6.46465 4.11401 6.45777 4.05899C6.45089 4.00398 6.44745 3.94552 6.44745 3.88362C6.44745 3.47099 6.53686 3.07038 6.71567 2.68182C6.89448 2.29325 7.09736 1.97174 7.32431 1.71728C7.61315 1.37341 7.97765 1.08801 8.4178 0.861057C8.85794 0.634107 9.27746 0.513755 9.67634 0.5C9.69697 0.589405 9.70728 0.696003 9.70728 0.819794C9.70728 1.23243 9.6282 1.63303 9.47002 2.0216C9.31184 2.41017 9.10896 2.75575 8.86138 3.05835C8.59317 3.38158 8.25618 3.65152 7.85042 3.86815ZM5.0187 16.3349C4.77455 16.445 4.48743 16.5 4.15732 16.5C3.65528 16.5 3.21513 16.3006 2.83688 15.9017C2.45863 15.5028 2.07006 15.0248 1.67118 14.4678C1.2104 13.8075 0.816677 13.0012 0.490006 12.0487C0.163335 11.0962 0 10.1351 0 9.16538C0 8.12691 0.196003 7.25521 0.588008 6.55029C0.980013 5.84537 1.48377 5.31238 2.09929 4.95132C2.71481 4.59026 3.35268 4.40974 4.0129 4.40974C4.36364 4.40974 4.69375 4.46647 5.00322 4.57995C5.3127 4.69342 5.60327 4.80862 5.87492 4.92553C6.14657 5.04245 6.39244 5.1009 6.61251 5.1009C6.8257 5.1009 7.07329 5.03901 7.35525 4.91522C7.63722 4.79142 7.95358 4.66935 8.30432 4.549C8.65506 4.42865 9.02987 4.36847 9.42876 4.36847C9.58006 4.36847 9.83795 4.39254 10.2024 4.44068C10.5669 4.48882 10.9675 4.62465 11.4043 4.84816C11.841 5.07167 12.2381 5.44133 12.5957 5.95712C12.5751 5.97776 12.4754 6.05169 12.2966 6.17892C12.1178 6.30615 11.9183 6.49183 11.6983 6.73598C11.4782 6.98012 11.2856 7.2896 11.1206 7.66441C10.9555 8.03922 10.873 8.48453 10.873 9.00032C10.873 9.59177 10.9779 10.0938 11.1876 10.5064C11.3974 10.9191 11.6415 11.2509 11.9201 11.5019C12.1986 11.753 12.4462 11.9369 12.6628 12.0538C12.8794 12.1707 12.9946 12.2326 13.0084 12.2395C13.0015 12.267 12.9138 12.5112 12.7453 12.972C12.5768 13.4327 12.3 13.9451 11.9149 14.509C11.5779 14.9973 11.2151 15.4478 10.8266 15.8604C10.438 16.273 9.97206 16.4794 9.42876 16.4794C9.06426 16.4794 8.7651 16.4261 8.53127 16.3195C8.29744 16.2129 8.05674 16.1063 7.80916 15.9997C7.56157 15.8931 7.22802 15.8398 6.80851 15.8398C6.40275 15.8398 6.06404 15.8948 5.79239 16.0048C5.52074 16.1149 5.26284 16.2249 5.0187 16.3349Z" fill="black" fill-opacity="0.847059"></path>
</svg>