<svg xmlns="http://www.w3.org/2000/svg" width="24" height="24" viewBox="0 0 24 24" fill="none">
<path d="M5.43896 17.4204C4.19385 17.4204 3.13916 17.3032 2.39209 16.5562C1.64502 15.8091 1.53516 14.769 1.53516 13.5166V11.3926C1.53516 10.1694 1.64502 9.12207 2.39209 8.375C3.13916 7.62793 4.19385 7.51074 5.42432 7.51074H16.9526C18.2051 7.51074 19.2598 7.62793 20.0068 8.375C20.7539 9.12207 20.8638 10.1621 20.8638 11.4146V13.5166C20.8638 14.769 20.7539 15.8091 20.0068 16.5562C19.2598 17.3032 18.2051 17.4204 16.9526 17.4204H5.43896ZM5.24121 16.2412H17.1577C17.9121 16.2412 18.7031 16.1387 19.1426 15.6992C19.5894 15.2524 19.6846 14.4688 19.6846 13.7144V11.2095C19.6846 10.4551 19.5894 9.67871 19.1426 9.23193C18.7031 8.79248 17.9121 8.68994 17.1577 8.68994H5.26318C4.49414 8.68994 3.6958 8.78516 3.24902 9.23193C2.80957 9.67871 2.71436 10.4624 2.71436 11.2314V13.7144C2.71436 14.4688 2.80957 15.2524 3.24902 15.6992C3.6958 16.1387 4.48682 16.2412 5.24121 16.2412ZM4.85303 15.3916C4.35498 15.3916 4.05469 15.3184 3.84961 15.1133C3.64453 14.9082 3.57129 14.6152 3.57129 14.1099V10.8359C3.57129 10.3232 3.64453 10.0229 3.84961 9.81787C4.04736 9.61279 4.34766 9.53955 4.875 9.53955H17.5459C18.0439 9.53955 18.3442 9.61279 18.5493 9.81787C18.7471 10.0229 18.8276 10.3159 18.8276 10.8213V14.1099C18.8276 14.6152 18.7471 14.9082 18.5493 15.1133C18.3442 15.3184 18.0513 15.3916 17.5459 15.3916H4.85303ZM21.8599 14.3589V10.5723C22.4385 10.6089 23.2148 11.3486 23.2148 12.4619C23.2148 13.5825 22.4385 14.3223 21.8599 14.3589Z" fill="#000000"/>
</svg>