<svg xmlns="http://www.w3.org/2000/svg" width="15" height="15" viewBox="0 0 15 15" fill="none">
<path d="M3.84473 7.22021C1.93311 7.22021 0.387695 5.87256 0.387695 3.88037C0.387695 1.88818 1.93311 0.540527 3.84473 0.540527H10.8979C12.8096 0.540527 14.355 1.88818 14.355 3.88037C14.355 5.87256 12.8096 7.22021 10.8979 7.22021H3.84473ZM3.84473 6.11426H10.8979C12.1724 6.11426 13.2051 5.21338 13.2051 3.88037C13.2051 2.54736 12.1724 1.64648 10.8979 1.64648H3.84473C2.57031 1.64648 1.5376 2.54736 1.5376 3.88037C1.5376 5.21338 2.57031 6.11426 3.84473 6.11426ZM3.84473 5.61621C2.84863 5.61621 2.05029 4.91309 2.05029 3.87305C2.05029 2.84033 2.84863 2.13721 3.84473 2.13721H5.97607C6.97217 2.13721 7.77051 2.84033 7.77051 3.88037C7.77051 4.91309 6.97217 5.61621 5.97607 5.61621H3.84473ZM3.52246 14.3687C1.78662 14.3687 0.387695 13.1528 0.387695 11.3584C0.387695 9.56396 1.78662 8.34814 3.52246 8.34814H11.2202C12.9561 8.34814 14.355 9.56396 14.355 11.3584C14.355 13.1528 12.9561 14.3687 11.2202 14.3687H3.52246ZM9.09619 13.248H11.3374C12.4287 13.248 13.293 12.4863 13.293 11.3584C13.293 10.2231 12.4287 9.46143 11.3374 9.46143H9.09619C8.01221 9.46143 7.14062 10.2231 7.14062 11.3511C7.14062 12.4863 8.01221 13.248 9.09619 13.248Z" fill="#000000"/>
</svg>